#!OML:ASF I:\salsa\salsa 7_09\Patient 1\Session 1\dancerfemale.ASF
:FULLY-SPECIFIED
:DEGREES
1672
root 3.0362 15.9042 -0.431718 370.912 -56.2166 -725.634
lowerback 4.10139 1.46492 0.0854159
upperback -4.35087 1.87368 -1.15152
thorax -6.79239 0.877128 -1.4341
lowerneck 4.41539 -8.50321 -11.987
upperneck 15.5614 -14.3156 15.9798
head 5.93602 -7.15655 6.36249
rclavicle 1.99965e-014 -1.59028e-015
rhumerus -57.1744 18.5084 -79.9752
rradius 125.88
rwrist -55.6906
rhand 65.6762 365.04
rfingers 7.12502
rthumb 74.8173 58.3324
lclavicle 1.99965e-014 -1.59028e-015
lhumerus 10.2601 6.1179 35.718
lradius 74.9166
lwrist 23.1005
lhand -63.6459 86.1446
lfingers 7.12502
lthumb -35.6154 -472.555
rfemur -17.5023 -13.5944 31.4652
rtibia 28.4938
rfoot -21.9489 -20.2183
rtoes -13.2189
lfemur -16.7865 -6.25659 -7.27882
ltibia 56.5129
lfoot -0.605392 2.69858
ltoes 19.9866
1673
root 3.23829 15.9254 -0.344491 370.159 -56.3962 -724.676
lowerback 4.20455 1.22817 -0.353945
upperback -4.41484 1.53474 -0.942654
thorax -6.94542 0.736343 -0.940669
lowerneck 4.06357 -8.41253 -12.0397
upperneck 15.868 -14.158 15.6909
head 6.05215 -7.07173 6.27098
rclavicle -3.18428e-014 7.15625e-015
rhumerus -57.137 19.0298 -79.9025
rradius 125.963
rwrist -55.6114
rhand 66.4238 365.663
rfingers 7.12502
rthumb 74.692 61.6596
lclavicle -3.18428e-014 7.15625e-015
lhumerus 12.1082 7.20281 36.2867
lradius 73.8994
lwrist 23.7165
lhand -63.6829 85.8457
lfingers 7.12502
lthumb -35.6505 -472.247
rfemur -18.9493 -13.7057 30.2374
rtibia 30.1198
rfoot -21.1537 -20.0791
rtoes -16.407
lfemur -14.6508 -7.0448 -8.31368
ltibia 53.1756
lfoot -4.99665 1.97661
ltoes 13.9148
1674
root 3.44836 15.9394 -0.25577 368.516 -56.6353 -722.78
lowerback 4.63275 1.00926 -1.13338
upperback -4.55297 1.16819 -0.984631
thorax -7.36221 0.592904 -0.521999
lowerneck 3.90592 -8.32885 -12.0296
upperneck 16.1856 -14.0415 15.4481
head 6.14369 -7.01431 6.19193
rclavicle 1.34925e-014 -1.59028e-014
rhumerus -57.2419 19.4558 -80.1043
rradius 126.066
rwrist -55.4717
rhand 66.0365 365.58
rfingers 7.12502
rthumb 74.7612 60.1811
lclavicle 1.34925e-014 -1.59028e-014
lhumerus 14.0855 7.87187 36.8879
lradius 72.6013
lwrist 24.1374
lhand -63.19 85.6896
lfingers 7.12502
lthumb -35.1831 -472.203
rfemur -20.7696 -14.9117 28.5153
rtibia 32.4206
rfoot -21.1854 -19.2407
rtoes -13.7646
lfemur -12.5072 -8.10203 -10.049
ltibia 49.6099
lfoot -11.1782 -0.822818
ltoes -6.71293
1675
root 3.6609 15.9551 -0.161507 366.508 -57.0086 -720.624
lowerback 5.33974 0.871272 -1.81035
upperback -4.72341 0.891397 -1.15742
thorax -7.96787 0.488601 -0.308468
lowerneck 3.92162 -8.27169 -12.0101
upperneck 16.4847 -13.9848 15.2421
head 6.21091 -6.99452 6.1274
rclavicle -1.47349e-014 -3.97569e-015
rhumerus -57.5589 19.7423 -80.4041
rradius 126.304
rwrist -55.2855
rhand 65.2599 365.292
rfingers 7.12502
rthumb 74.8718 57.0601
lclavicle -1.47349e-014 -3.97569e-015
lhumerus 16.0841 8.13415 37.5771
lradius 71.164
lwrist 24.4973
lhand -62.5105 85.06
lfingers 7.12502
lthumb -34.5385 -471.723
rfemur -22.9155 -16.4076 26.6099
rtibia 35.4858
rfoot -20.9964 -17.8484
rtoes -17.2606
lfemur -10.4289 -8.86034 -11.9784
ltibia 46.1406
lfoot -14.2048 -0.776241
ltoes -13.6588
1676
root 3.86946 15.9751 -0.0658465 363.934 -57.4111 -717.734
lowerback 5.85655 0.766291 -2.73172
upperback -4.81055 0.61451 -1.50237
thorax -8.37394 0.395151 -0.130626
lowerneck 3.94362 -8.22381 -11.8517
upperneck 16.6253 -13.9 14.9631
head 6.20863 -6.95786 6.01784
rclavicle -1.85367e-014 5.1684e-015
rhumerus -57.8313 19.849 -80.5644
rradius 126.704
rwrist -54.9641
rhand 65.5936 365.589
rfingers 7.12502
rthumb 74.829 58.58
lclavicle -1.85367e-014 5.1684e-015
lhumerus 17.9608 8.1263 38.2038
lradius 69.8998
lwrist 24.893
lhand -62.0237 83.0711
lfingers 7.12502
lthumb -34.0762 -469.838
rfemur -25.5078 -18.2638 24.3734
rtibia 39.0553
rfoot -20.8372 -16.0842
rtoes -24.0542
lfemur -8.68771 -9.02005 -14.2776
ltibia 42.9518
lfoot -16.4956 -0.750338
ltoes -25.1797
1677
root 4.07209 15.9643 0.0193902 360.52 -57.7129 -713.722
lowerback 6.24305 0.675098 -4.34284
upperback -4.93085 0.258679 -1.99473
thorax -8.7451 0.301266 0.290811
lowerneck 3.91423 -8.10478 -11.7896
upperneck 16.8473 -13.76 14.8794
head 6.25226 -6.88912 5.99212
rclavicle 3.04016e-014 8.34896e-015
rhumerus -58.1425 19.9493 -80.6728
rradius 127.136
rwrist -54.6383
rhand 66.5034 366.024
rfingers 7.12502
rthumb 74.6766 62.3058
lclavicle 3.04016e-014 8.34896e-015
lhumerus 19.6331 7.68596 38.6065
lradius 68.6735
lwrist 25.3275
lhand -61.5464 82.1204
lfingers 7.12502
lthumb -33.6227 -468.987
rfemur -28.5958 -20.4323 21.7047
rtibia 42.9257
rfoot -19.5326 -14.4939
rtoes -26.3896
lfemur -7.45352 -8.25859 -17.0377
ltibia 40.2536
lfoot -17.9383 -1.69786
ltoes -27.2961
1678
root 4.25761 15.9452 0.0972501 356.717 -57.961 -709.329
lowerback 6.56708 0.659379 -6.24719
upperback -5.0109 -0.0470657 -2.51747
thorax -9.03758 0.251158 0.83625
lowerneck 3.91196 -8.04222 -11.7548
upperneck 17.0707 -13.6803 14.6882
head 6.29632 -6.85673 5.93064
rclavicle 4.05024e-014 -5.1684e-015
rhumerus -58.5105 19.9245 -80.8543
rradius 127.539
rwrist -54.2489
rhand 67.5018 365.357
rfingers 7.12502
rthumb 74.4512 65.1615
lclavicle 4.05024e-014 -5.1684e-015
lhumerus 21.0964 6.81857 38.8553
lradius 67.545
lwrist 25.8073
lhand -61.2055 84.1431
lfingers 7.12502
lthumb -33.2987 -471.08
rfemur -31.6361 -22.4433 18.928
rtibia 46.7085
rfoot -18.3482 -13.572
rtoes -26.5431
lfemur -6.40061 -7.0016 -19.9576
ltibia 38.0614
lfoot -18.2292 -2.58687
ltoes -25.1432
1679
root 4.42575 15.923 0.170034 353.248 -58.091 -705.4
lowerback 6.67697 0.664861 -7.87491
upperback -4.94543 -0.280045 -3.0427
thorax -9.04081 0.211962 1.21471
lowerneck 3.70357 -8.0178 -11.521
upperneck 17.3349 -13.6292 14.4425
head 6.37616 -6.81793 5.8056
rclavicle -5.30382e-014 -5.56597e-015
rhumerus -58.8751 19.605 -81.2154
rradius 127.835
rwrist -53.6831
rhand 68.3908 364.422
rfingers 7.12502
rthumb 74.2012 67.2676
lclavicle -5.30382e-014 -5.56597e-015
lhumerus 22.5598 6.68282 40.4316
lradius 66.8254
lwrist 24.9856
lhand -61.5043 83.1964
lfingers 7.12502
lthumb -33.5828 -470.072
rfemur -34.4297 -24.2138 16.4994
rtibia 50.2259
rfoot -17.7318 -13.2148
rtoes -28.936
lfemur -5.65468 -5.23625 -22.4797
ltibia 36.5434
lfoot -17.987 -3.71042
ltoes -19.7692
1680
root 4.57773 15.9041 0.235676 350.786 -58.1414 -702.755
lowerback 6.77884 0.598194 -8.92702
upperback -4.82976 -0.521797 -3.34899
thorax -8.96947 0.138808 1.50648
lowerneck 3.42714 -7.95471 -11.3069
upperneck 17.5886 -13.5169 14.2063
head 6.45808 -6.74705 5.68909
rclavicle 5.62188e-014 2.76311e-014
rhumerus -59.395 19.3295 -81.5444
rradius 127.992
rwrist -53.1776
rhand 69.5016 364.141
rfingers 7.12502
rthumb 73.827 70.6386
lclavicle 5.62188e-014 2.76311e-014
lhumerus 23.5904 5.8118 41.1221
lradius 66.1605
lwrist 24.7643
lhand -62.2616 84.8808
lfingers 7.12502
lthumb -34.3021 -471.597
rfemur -36.7117 -25.8303 14.8883
rtibia 53.1742
rfoot -17.7784 -13.3889
rtoes -28.8728
lfemur -5.08833 -3.06888 -24.0836
ltibia 35.4581
lfoot -17.3723 -5.10796
ltoes -14.3847
1681
root 4.71461 15.8669 0.297673 348.977 -58.2957 -701.048
lowerback 6.96373 0.533937 -9.49937
upperback -4.72518 -0.702429 -3.49387
thorax -8.95402 0.0754139 1.695
lowerneck 3.35511 -7.8698 -11.3245
upperneck 17.723 -13.3937 14.0851
head 6.48898 -6.69123 5.6595
rclavicle 2.37051e-014 1.15295e-014
rhumerus -60.2304 19.0746 -81.8135
rradius 128.058
rwrist -52.791
rhand 71.4043 364.057
rfingers 7.12502
rthumb 73.0396 76.3824
lclavicle 2.37051e-014 1.15295e-014
lhumerus 24.2396 4.85319 41.9047
lradius 65.6608
lwrist 24.5225
lhand -62.5666 88.8766
lfingers 7.12502
lthumb -34.5917 -475.527
rfemur -38.6034 -27.3306 13.9246
rtibia 55.8596
rfoot -16.207 -13.6159
rtoes -32.7004
lfemur -4.56564 -0.777402 -24.9947
ltibia 34.8319
lfoot -17.7587 -6.9936
ltoes -15.1311
